<mxfile host="app.diagrams.net" modified="2024-01-27T11:54:53.265Z" agent="Mozilla/5.0 (Macintosh; Intel Mac OS X 10_15_7) AppleWebKit/537.36 (KHTML, like Gecko) Chrome/121.0.0.0 Safari/537.36" version="23.0.2" etag="Y9lBz2oXBrU04HX0qOg7" type="github">
  <diagram name="Page-1" id="_NvwxJtpQazXjghJ6tLA">
    <mxGraphModel>
      <root>
        <mxCell id="0" />
        <mxCell id="1" parent="0" />
      </root>
    </mxGraphModel>
  </diagram>
</mxfile>
